<svg xmlns="http://www.w3.org/2000/svg" width="48" height="48" viewBox="0 0 48 48" fill="none">
  <path fill="#25D366" d="M24.004 4C13.522 4 5 12.522 5 23.004a18.925 18.925 0 0 0 2.514 9.39L5 43l10.912-2.456A18.94 18.94 0 0 0 24.004 42C34.486 42 43 33.478 43 23S34.486 4 24.004 4Z"/>
  <path fill="#FFF" d="M33.416 28.611c-.537-.268-3.173-1.563-3.665-1.741-.491-.177-.85-.267-1.209.268s-1.386 1.741-1.7 2.105c-.314.36-.628.401-1.165.134-.537-.268-2.265-.832-4.313-2.653-1.593-1.417-2.667-3.165-2.982-3.702-.314-.537-.034-.828.235-1.096.242-.242.538-.63.805-.945.27-.316.358-.537.537-.896.179-.36.09-.67-.045-.945-.134-.268-1.208-2.907-1.655-3.976-.436-1.05-.881-.91-1.209-.927l-1.033-.017c-.352 0-.921.134-1.405.67-.483.537-1.842 1.8-1.842 4.39 0 2.59 1.885 5.094 2.145 5.448.268.36 3.712 5.68 9.006 7.724 1.257.541 2.236.864 3.003 1.104 1.262.4 2.41.343 3.319.209 1.013-.15 3.173-1.296 3.622-2.547.446-1.25.446-2.324.312-2.547-.134-.223-.491-.36-1.028-.628Z"/>
</svg>
